<?xml version="1.0" standalone="no"?>
<!DOCTYPE svg PUBLIC "-//W3C//DTD SVG 20010904//EN"
 "http://www.w3.org/TR/2001/REC-SVG-20010904/DTD/svg10.dtd">
<svg version="1.0" xmlns="http://www.w3.org/2000/svg"
 width="434.000000pt" height="434.000000pt" viewBox="0 0 434.000000 434.000000"
 preserveAspectRatio="xMidYMid meet">
<metadata>
Created by potrace 1.14, written by Peter Selinger 2001-2017
</metadata>
<g transform="translate(0.000000,434.000000) scale(0.100000,-0.100000)"
fill="#000000" stroke="none">
<path d="M0 2170 l0 -2170 760 0 c649 0 760 2 760 14 0 8 -5 16 -11 18 -6 2 2
10 18 18 15 8 42 23 58 33 30 18 30 19 4 15 -17 -3 -26 0 -26 10 0 9 8 12 24
9 13 -2 26 0 30 6 3 5 2 7 -3 4 -6 -3 -16 -1 -24 4 -12 8 -12 12 -2 16 23 9 2
22 -27 17 -16 -4 -37 -1 -48 4 -16 10 -14 12 15 18 19 4 36 13 39 20 3 8 11
14 18 14 6 0 20 8 29 19 16 17 16 19 -6 25 -13 3 -39 6 -58 7 -32 1 -33 1 -10
9 14 4 36 11 50 14 14 3 34 12 45 21 19 14 18 15 -10 5 l-30 -10 25 20 c23 18
23 20 5 20 -13 0 -5 7 23 20 44 20 59 47 20 37 -22 -6 -22 -5 -4 8 18 14 14
35 -7 35 -7 0 -6 -4 3 -10 11 -8 7 -9 -15 -4 -42 9 -42 10 10 25 26 8 52 20
58 28 13 15 14 16 -40 -6 -17 -6 -17 -6 -1 10 9 9 21 17 27 17 6 0 11 5 11 10
0 10 -26 15 -65 12 -20 -2 -20 -2 -1 13 19 15 19 15 -4 15 -26 0 -18 14 8 16
43 3 50 5 56 19 4 10 -3 17 -22 21 -15 4 -33 12 -41 18 -11 9 -9 12 10 17 22
6 22 7 -6 8 -23 1 -27 3 -15 11 12 8 12 10 -5 10 -17 0 -17 2 -5 10 12 8 13
12 2 19 -11 6 -10 10 4 15 16 6 16 8 4 17 -10 6 -5 7 16 3 17 -3 34 -1 38 4 4
6 -3 8 -16 6 -15 -3 -10 2 12 13 23 12 35 26 36 41 1 12 5 26 9 30 5 4 5 -1 2
-10 -3 -10 -2 -20 3 -23 13 -8 13 36 0 55 -9 13 -11 13 -19 1 -7 -11 -11 -4
-16 25 -10 61 -17 73 -24 44 -7 -24 -7 -24 -18 -5 -13 22 -21 23 -35 3 -5 -8
-6 1 -2 25 4 24 2 37 -5 37 -6 0 -11 -5 -11 -11 0 -5 -5 -7 -10 -4 -6 3 -15
-4 -20 -17 -9 -20 -10 -20 -9 -3 1 11 0 34 -1 50 -1 26 -3 27 -9 10 -8 -18
-10 -16 -19 15 -7 23 -11 28 -12 15 l-1 -20 -8 20 c-5 11 -13 21 -20 21 -6 1
-15 2 -21 3 -5 0 -10 8 -10 16 0 15 -99 85 -121 85 -6 0 -18 8 -25 18 -13 16
-14 16 -9 -3 5 -16 3 -15 -6 3 -7 13 -18 21 -26 18 -7 -3 -13 0 -14 7 0 7 -4
3 -9 -8 -7 -17 -9 -16 -9 9 -1 28 -2 29 -16 10 -10 -13 -14 -15 -15 -5 0 11
-5 9 -21 -5 -22 -19 -22 -19 -10 3 14 27 14 36 1 28 -5 -3 -10 -1 -10 6 0 8
-4 8 -16 -2 -13 -11 -15 -11 -14 2 1 7 2 19 1 25 -1 13 -31 15 -31 2 0 -5 -5
-6 -11 -3 -6 4 -8 9 -5 12 12 12 -16 44 -34 38 -16 -5 -17 -2 -10 32 9 39 5
58 -6 29 -8 -22 -25 -21 -18 2 3 9 -5 4 -18 -13 -12 -16 -45 -52 -71 -80 l-49
-50 56 71 c57 72 70 98 38 73 -15 -13 -16 -12 -3 3 7 10 16 16 20 14 4 -3 7 4
7 14 0 14 -3 16 -13 8 -11 -8 -12 -7 -6 8 6 16 4 17 -8 7 -13 -11 -15 -9 -14
6 1 11 6 25 11 33 15 19 11 43 -7 42 -11 -1 -15 5 -12 16 2 9 -2 22 -10 29
-12 10 -32 1 -109 -48 -104 -67 -170 -113 -240 -167 -27 -20 -48 -34 -48 -31
0 10 126 104 228 171 97 64 120 82 87 70 -29 -12 -14 5 28 31 38 23 39 25 12
19 -29 -6 -29 -6 -10 10 23 19 -44 -10 -213 -90 -63 -30 -111 -50 -108 -45 3
5 68 39 143 76 189 91 203 99 203 106 0 12 -63 -6 -202 -58 -46 -17 -72 -22
-84 -15 -12 7 -2 14 48 32 34 13 67 27 72 31 13 11 -63 -10 -96 -27 -33 -17
-41 -18 -32 -3 4 7 0 9 -14 5 -27 -9 -195 -36 -199 -32 -5 4 61 23 184 51 145
33 313 93 307 109 -4 10 -19 10 -72 0 -37 -6 -92 -14 -122 -18 -30 -3 -90 -12
-133 -21 -43 -8 -91 -15 -105 -14 -28 1 128 31 258 50 41 6 95 20 120 32 l45
21 -55 6 -55 7 45 1 c40 2 46 5 48 26 2 30 -8 33 -175 47 -70 6 -130 13 -133
16 -5 6 99 0 243 -14 47 -4 67 -3 67 6 0 6 -10 11 -22 12 -22 1 -22 1 2 9 20
7 21 8 5 9 -18 1 -18 2 3 17 49 34 34 44 -155 111 -57 20 -101 39 -98 41 4 5
170 -51 230 -78 71 -32 61 -8 -11 27 -71 34 -65 35 19 2 27 -11 52 -17 57 -14
4 3 11 -1 13 -7 4 -9 6 -7 6 3 1 9 10 28 22 43 11 14 17 26 12 26 -16 1 160
60 179 60 17 0 17 1 1 18 -10 10 -26 16 -35 14 -10 -2 -25 4 -35 13 -11 11
-18 14 -21 6 -6 -17 -37 -13 -56 8 -10 11 -25 16 -40 14 -24 -5 -36 -36 -37
-100 -1 -13 -5 -23 -9 -23 -13 0 -16 50 -6 114 7 44 6 64 -4 80 -12 19 -12 20
4 7 14 -12 20 -11 44 10 15 13 31 27 35 30 5 4 -3 29 -17 57 -14 28 -26 55
-26 59 1 4 15 -18 31 -50 24 -46 34 -57 47 -52 41 17 72 23 72 14 0 -5 4 -9
10 -9 5 0 6 8 3 18 -5 13 -4 15 8 6 8 -7 24 -8 39 -3 24 8 24 9 -3 5 -20 -2
-25 0 -18 7 6 6 35 12 66 15 42 3 55 8 56 21 0 10 2 11 6 4 7 -18 21 -16 52 6
15 11 34 21 42 23 8 2 16 5 19 8 3 3 25 18 49 35 24 16 55 42 70 58 14 15 43
46 64 68 20 22 45 52 54 67 10 15 23 31 30 35 7 4 13 17 13 29 0 16 3 18 14 9
11 -10 16 -6 24 16 6 15 11 22 11 15 2 -23 30 13 45 55 12 35 14 36 20 15 6
-18 11 -21 21 -12 8 6 11 19 8 28 -6 15 -3 14 15 -2 21 -18 22 -18 29 0 3 11
10 22 15 25 10 7 12 44 4 89 l-6 35 10 -33 c6 -18 15 -30 20 -27 6 4 10 -1 10
-10 0 -9 5 -13 11 -9 6 3 9 15 6 25 -3 11 -1 17 4 13 5 -3 9 -13 10 -22 0 -15
1 -15 8 1 4 10 11 18 16 17 6 -1 13 9 17 22 4 15 6 4 6 -29 -1 -29 1 -56 5
-59 4 -4 7 19 7 51 0 52 2 57 14 40 13 -18 14 -18 25 3 6 12 18 22 26 22 10 0
15 10 15 28 1 26 1 26 15 8 15 -20 15 -20 16 0 0 18 1 18 9 -1 l9 -20 2 20 c1
11 2 26 2 32 -1 7 3 10 8 7 5 -3 9 -15 10 -27 0 -19 2 -18 11 6 8 22 15 27 30
24 15 -4 23 2 34 26 l15 32 -7 -35 c-6 -31 -5 -33 10 -21 27 22 29 6 4 -40
-21 -41 -23 -42 -29 -19 -4 16 -7 19 -8 8 -1 -24 -55 -152 -58 -141 -2 6 5 31
16 56 11 26 18 47 15 47 -2 0 0 9 6 20 6 11 8 20 4 20 -12 0 -33 -34 -34 -53
0 -10 -4 -15 -10 -12 -5 3 -10 0 -11 -7 -1 -7 -5 -2 -10 12 -7 20 -8 17 -6
-17 1 -24 -1 -43 -5 -43 -5 0 -8 -6 -8 -14 0 -8 -8 -21 -19 -28 -19 -14 -46
-128 -29 -128 4 0 8 -7 8 -16 0 -14 -3 -14 -15 -4 -12 10 -15 9 -15 -7 0 -21
30 -28 43 -9 5 7 12 5 21 -7 14 -18 15 -18 26 3 6 12 14 19 17 16 4 -3 -2 -15
-12 -26 -13 -15 -15 -23 -7 -33 9 -10 8 -14 -2 -14 -8 0 -19 12 -26 25 -9 22
-13 23 -24 11 -17 -18 -32 -64 -18 -55 5 3 13 -1 16 -10 9 -25 8 -25 -21 -8
-19 11 -22 11 -11 2 10 -8 15 -18 11 -21 -3 -4 2 -7 11 -7 12 0 16 -5 12 -15
-3 -9 0 -15 8 -15 10 0 12 7 8 22 -3 13 -1 19 6 15 5 -4 9 -15 7 -25 -1 -9 2
-22 7 -29 5 -7 6 -18 2 -25 -5 -8 -1 -8 11 2 17 14 18 14 6 -8 -11 -21 -10
-23 15 -20 20 2 28 -3 35 -20 6 -15 5 -21 -1 -17 -6 3 -10 -3 -10 -15 0 -12 4
-19 8 -16 4 2 8 -4 9 -14 1 -13 -3 -17 -13 -13 -13 5 -18 -7 -15 -32 1 -5 -6
-1 -14 9 -11 15 -15 16 -15 5 0 -8 -9 -21 -20 -29 -11 -8 -20 -20 -20 -27 0
-7 -8 -13 -17 -13 -12 0 -14 -3 -7 -8 16 -10 9 -64 -11 -78 -12 -9 -13 -14 -4
-19 6 -4 15 -1 20 6 7 11 9 10 9 -3 0 -12 -8 -18 -22 -19 -18 -1 -19 -2 -5 -6
9 -2 15 -9 12 -14 -10 -15 -45 9 -39 26 4 8 2 15 -2 16 -48 4 -62 3 -57 -5 4
-5 -1 -7 -10 -3 -9 3 -48 -7 -87 -22 -43 -18 -73 -25 -76 -19 -4 6 -10 5 -15
-3 -6 -10 -13 -10 -32 -2 -13 6 -29 8 -36 4 -7 -5 -24 -7 -39 -5 -14 1 -43 -6
-64 -16 -37 -18 -49 -15 -28 6 7 7 4 10 -12 10 -13 -1 -26 -5 -29 -9 -3 -4
-12 -1 -19 8 -8 10 -9 15 -1 15 6 0 11 5 11 11 0 5 -4 7 -10 4 -18 -11 -10 5
15 33 14 15 28 38 32 51 3 14 17 35 31 48 26 24 43 24 23 -1 -9 -11 -8 -15 4
-20 9 -3 14 -10 10 -15 -3 -5 0 -13 6 -17 8 -4 7 -9 -2 -15 -11 -7 -10 -9 4
-9 9 0 17 -5 17 -11 0 -5 5 -7 10 -4 6 3 10 2 10 -2 0 -17 55 -29 95 -21 72
15 296 154 277 172 -3 4 6 2 22 -4 16 -6 31 -9 33 -6 8 8 -10 58 -23 63 -8 3
-14 9 -14 15 0 5 5 6 10 3 6 -3 10 -2 10 4 0 5 -9 13 -21 16 -11 4 -18 9 -16
12 10 9 -15 62 -31 66 -11 3 -8 5 7 6 24 1 24 2 6 15 -11 8 -24 12 -29 9 -5
-4 -6 -1 -2 5 5 8 -1 12 -16 12 -18 0 -20 2 -9 9 20 13 -3 41 -33 41 -17 0
-19 -2 -6 -11 13 -9 13 -10 0 -5 -8 3 -23 9 -32 12 -10 4 -18 12 -18 20 0 8
-6 11 -15 8 -10 -4 -12 -10 -7 -18 5 -6 8 -19 7 -28 -2 -12 2 -15 13 -10 19 7
18 4 -50 -79 -21 -25 -35 -48 -33 -51 3 -3 -2 -11 -12 -19 -11 -9 -14 -10 -9
-1 15 24 -33 12 -50 -13 -9 -14 -23 -25 -30 -25 -8 0 -14 -5 -14 -11 0 -6 -9
-9 -20 -6 -11 3 -20 1 -20 -5 0 -5 -13 -7 -30 -5 -18 3 -34 0 -41 -9 -24 -29
-99 -55 -99 -35 0 5 -9 9 -19 8 -11 0 -17 -5 -15 -9 3 -4 -2 -8 -10 -8 -9 0
-16 5 -16 11 0 6 -7 3 -17 -6 -9 -10 -26 -15 -40 -12 -12 2 -23 0 -23 -4 0 -5
-6 -6 -14 -3 -21 8 -25 -6 -16 -66 5 -30 11 -82 14 -115 8 -71 10 -82 23 -115
14 -34 24 -80 19 -80 -3 0 -10 19 -16 42 -9 31 -14 38 -21 27 -6 -11 -9 -8
-10 11 -1 18 -3 20 -6 7 -3 -10 2 -26 9 -35 8 -9 15 -28 16 -40 0 -13 10 -32
21 -42 12 -9 21 -22 21 -29 0 -18 17 -13 46 14 15 14 23 25 17 25 -5 0 -14 -5
-20 -11 -9 -9 -12 -6 -11 12 2 31 16 49 37 48 10 0 8 -3 -7 -10 -32 -12 -18
-29 21 -25 25 3 28 2 16 -8 -9 -6 -19 -22 -23 -36 -6 -19 -5 -22 3 -10 9 13
12 13 20 1 5 -8 14 -10 21 -6 8 5 11 3 8 -6 -3 -8 -17 -13 -32 -12 -14 1 -26
-2 -26 -8 0 -5 3 -8 8 -7 4 1 17 -3 29 -10 20 -11 22 -10 16 4 -4 11 7 7 34
-13 23 -15 39 -30 37 -32 -2 -2 -10 2 -19 9 -12 10 -15 10 -15 -1 0 -9 -3 -10
-8 -4 -4 6 -18 11 -32 12 -18 1 -14 -3 18 -17 38 -17 47 -18 70 -6 17 8 37 10
52 5 24 -7 19 -9 -25 -12 -11 -1 -21 -6 -22 -11 -2 -12 -25 -26 -42 -26 -8 0
-11 6 -7 15 3 8 0 16 -7 16 -7 1 -16 2 -22 4 -5 1 -22 3 -37 3 -18 1 -28 8
-28 18 0 8 -5 12 -11 9 -15 -10 14 -50 37 -50 11 0 27 3 37 8 10 5 17 4 17 -3
0 -5 -8 -10 -17 -10 -14 -1 -12 -4 7 -15 14 -8 19 -14 11 -15 -8 0 -12 -2 -9
-5 3 -3 19 2 37 12 23 13 33 15 39 6 4 -6 20 -15 35 -18 18 -5 25 -11 19 -19
-15 -20 -1 -56 21 -56 9 0 9 2 0 8 -7 4 -9 13 -4 21 5 7 14 10 20 7 6 -4 9
-11 6 -16 -3 -5 0 -12 6 -16 8 -5 9 -3 4 6 -6 9 -2 10 15 5 15 -5 20 -4 16 4
-4 6 -13 11 -21 11 -8 0 -16 4 -20 10 -3 5 14 3 37 -4 54 -16 55 -16 73 -16 8
0 19 -10 25 -22 10 -21 10 -21 -3 -6 -17 21 -28 23 -23 6 1 -7 1 -10 -2 -5 -8
14 -42 28 -42 17 0 -5 7 -10 16 -10 8 0 13 -4 9 -10 -3 -5 7 -17 22 -27 15
-10 32 -22 36 -28 5 -6 7 -3 4 7 -11 34 19 24 60 -21 41 -45 50 -68 17 -40
-16 13 -16 12 -3 -9 12 -20 12 -24 -1 -32 -12 -8 -10 -10 9 -10 17 0 22 4 17
16 -6 14 -4 15 9 4 13 -11 13 -15 3 -21 -11 -7 -11 -9 0 -9 7 0 10 -5 6 -11
-4 -8 -9 -8 -17 0 -17 17 -29 13 -22 -8 7 -24 -22 -23 -40 2 -17 23 -28 21
-22 -3 4 -16 2 -18 -13 -10 -10 5 -21 15 -24 22 -6 12 -3 -2 9 -54 4 -20 24
-58 30 -58 2 0 2 7 -1 15 -11 26 10 16 34 -18 18 -26 22 -28 22 -12 0 16 2 17
9 6 5 -8 16 -11 24 -8 9 3 21 -1 27 -9 7 -8 19 -14 26 -14 8 0 14 -5 14 -11 0
-5 6 -7 13 -3 7 5 6 1 -3 -10 -12 -16 -12 -20 1 -30 22 -16 35 -45 43 -94 4
-29 3 -41 -4 -37 -5 3 -10 17 -10 30 0 13 -5 27 -12 31 -7 5 -9 2 -6 -7 3 -8
-2 -21 -10 -29 -14 -13 -15 -12 -10 1 3 9 2 22 -3 30 -9 14 -13 -28 -11 -116
l1 -40 -9 44 c-5 24 -12 46 -14 48 -9 10 -18 -69 -13 -110 3 -23 2 -60 -2 -82
-7 -37 -6 -40 16 -40 13 0 23 3 23 7 0 4 7 4 17 1 12 -5 14 -3 9 8 -4 8 0 5 8
-5 9 -11 16 -14 16 -7 0 7 5 9 11 6 13 -9 51 24 42 38 -3 6 -1 7 5 3 7 -4 10
-19 7 -34 l-5 -27 12 28 c12 28 32 39 22 12 -4 -8 -3 -23 1 -32 6 -14 10 -9
17 22 4 22 10 47 12 55 3 8 5 19 5 25 1 5 5 5 11 -1 7 -7 6 -22 -5 -47 -17
-40 -21 -72 -6 -48 11 18 22 0 19 -33 -1 -14 -8 -26 -15 -26 -7 0 -13 -8 -13
-17 0 -11 3 -14 8 -7 4 6 15 10 25 8 25 -3 46 42 27 59 -10 10 -12 9 -7 -6 4
-11 3 -16 -3 -12 -6 3 -10 15 -10 25 0 10 -4 22 -10 25 -5 3 -10 11 -10 18 0
6 14 -3 30 -21 17 -18 30 -40 30 -49 0 -13 3 -13 15 -3 13 11 13 8 0 -24 l-15
-36 26 10 c14 6 23 6 20 1 -8 -12 41 -74 60 -77 9 -2 19 6 22 18 3 13 11 18
23 15 14 -4 19 0 19 14 0 11 7 19 16 19 11 0 15 -6 11 -20 -3 -11 -1 -23 4
-26 5 -3 9 0 9 5 0 6 5 11 11 11 6 0 9 -6 6 -14 -4 -10 5 -8 30 7 l36 21 -5
-28 c-6 -31 7 -23 15 9 4 18 5 17 6 -3 1 -22 31 -65 31 -45 0 5 -5 14 -11 20
-9 9 -6 10 10 6 22 -6 39 -23 22 -23 -5 0 -11 -12 -13 -27 -3 -24 -7 -28 -30
-25 -18 2 -28 -1 -28 -10 0 -11 -2 -11 -9 0 -6 10 -10 10 -21 -2 -7 -9 -16
-13 -21 -10 -5 3 -6 -3 -2 -12 6 -15 7 -15 21 2 13 16 14 17 8 2 -18 -52 -18
-54 -2 -34 12 15 29 19 75 20 56 1 58 0 45 -19 -8 -11 -14 -29 -15 -40 0 -11
-3 -14 -6 -7 -4 10 -8 10 -21 0 -8 -7 -17 -12 -19 -10 -1 1 -4 2 -5 1 -2 0
-14 -2 -27 -5 -24 -4 -24 -4 -6 16 14 16 20 17 27 8 6 -10 8 -10 8 0 0 7 5 10
11 7 6 -4 5 2 -2 13 -10 16 -16 18 -31 9 -10 -7 -18 -17 -18 -23 0 -6 -6 -17
-14 -23 -8 -7 -12 -21 -9 -31 4 -14 0 -20 -10 -20 -8 0 -18 -6 -20 -12 -4 -10
-6 -10 -6 0 -1 6 -6 12 -12 12 -6 0 -8 -7 -5 -16 5 -12 2 -15 -11 -10 -10 4
-14 4 -10 0 4 -4 2 -13 -4 -21 -6 -7 -8 -13 -3 -13 5 0 4 -4 -3 -8 -10 -6 -9
-14 2 -35 7 -15 11 -27 7 -27 -4 0 0 -5 8 -10 12 -7 12 -10 1 -10 -7 0 -11 -6
-8 -14 3 -8 -3 -22 -14 -32 -14 -12 -16 -20 -8 -25 9 -5 8 -12 -4 -24 -15 -15
-15 -35 -1 -35 3 0 2 5 -2 12 -4 6 -3 8 4 5 5 -4 9 -15 7 -25 -1 -9 2 -23 8
-29 7 -10 4 -13 -13 -13 -19 0 -21 -2 -10 -16 8 -8 9 -14 4 -13 -22 4 -29 -3
-31 -30 -2 -24 1 -28 18 -24 11 3 25 16 30 29 4 13 16 24 26 24 17 -1 17 -1 0
-11 -13 -8 -17 -18 -13 -35 4 -14 2 -24 -4 -24 -6 0 -17 -6 -24 -13 -12 -10
-12 -16 0 -39 10 -19 11 -28 4 -28 -7 0 -5 -7 4 -15 13 -13 135 -15 975 -15
l961 0 0 2170 0 2170 -2170 0 -2170 0 0 -2170z m3661 1877 c8 -7 19 -21 23
-32 4 -11 4 -16 0 -13 -3 4 -15 -3 -25 -15 l-19 -22 10 28 c6 17 6 27 0 27 -6
0 -10 -8 -11 -17 0 -12 -2 -13 -6 -5 -4 10 -9 9 -20 -5 -13 -17 -14 -17 -9 0
3 9 1 17 -4 17 -6 0 -10 -8 -11 -17 0 -10 -3 -13 -6 -6 -3 8 -13 4 -28 -13
-13 -14 -29 -23 -34 -19 -15 9 -14 0 5 -38 15 -31 15 -32 -3 -10 -10 12 -23
19 -28 15 -15 -10 -39 -64 -36 -81 1 -7 -2 -10 -8 -6 -6 3 -16 -5 -23 -19 -6
-14 -15 -26 -19 -26 -4 0 -6 -12 -5 -27 5 -38 -3 -48 -19 -26 -13 16 -14 16
-12 -11 1 -16 -4 -31 -10 -33 -7 -3 -13 2 -13 11 0 9 -4 16 -10 16 -14 0 -12
-11 5 -34 7 -10 18 -15 24 -11 6 3 11 1 11 -4 0 -6 -9 -11 -19 -11 -17 0 -18
-4 -11 -30 6 -21 5 -28 -2 -24 -7 4 -8 -2 -3 -17 7 -22 7 -23 -10 -9 -17 14
-18 13 -12 -4 6 -16 5 -17 -8 -6 -8 7 -15 24 -15 37 0 19 3 23 13 15 9 -8 12
0 11 38 -1 27 -4 61 -8 77 -4 19 -4 23 3 14 13 -21 44 -6 36 18 -6 21 20 55
36 46 5 -4 6 1 3 9 -3 9 -2 16 4 16 6 0 8 10 4 23 -5 19 -3 20 10 9 13 -10 15
-9 11 12 -4 17 1 28 16 38 12 7 21 21 21 31 0 10 4 16 9 12 5 -3 12 4 16 15 3
11 11 20 16 20 6 0 25 11 42 24 18 13 46 26 62 29 17 2 32 5 35 5 3 1 12 -4
21 -11z m96 -239 c-3 -7 -5 -2 -5 12 0 14 2 19 5 13 2 -7 2 -19 0 -25z m42
-37 c6 -10 7 -21 4 -25 -4 -3 1 -12 11 -19 10 -7 17 -22 15 -32 -3 -15 -30 25
-57 87 -8 17 18 7 27 -11z m-5 -77 c9 -23 7 -36 -3 -30 -12 8 -21 46 -11 46 4
0 11 -7 14 -16z m49 -72 c-4 -18 -8 -20 -19 -11 -19 15 -18 27 4 31 22 6 22 6
15 -20z m-536 -76 c-3 -8 0 -19 6 -26 9 -10 9 -11 -3 -8 -8 3 -15 12 -15 21 0
28 -12 28 -30 1 -9 -15 -13 -24 -7 -20 5 3 16 -2 23 -11 12 -15 12 -16 -3 -10
-15 5 -15 1 3 -40 15 -36 16 -43 4 -33 -18 15 -20 -1 -3 -18 8 -8 8 -12 1 -12
-16 0 -36 28 -28 40 4 6 1 9 -6 8 -6 -2 -14 3 -17 11 -2 8 0 11 5 8 5 -3 9 3
9 13 0 10 -3 18 -6 18 -18 -1 -23 4 -11 11 7 5 14 21 14 35 0 19 4 26 16 24 9
-2 17 4 17 12 1 8 2 19 3 25 0 5 8 -1 17 -13 9 -13 13 -29 11 -36z m584 -49
c4 -16 5 -35 2 -42 -10 -27 -33 10 -30 48 2 20 0 34 -4 31 -12 -7 -20 12 -13
31 5 13 9 11 21 -12 8 -15 19 -41 24 -56z m-701 -57 c0 -5 -2 -10 -4 -10 -3 0
-8 5 -11 10 -3 6 -1 10 4 10 6 0 11 -4 11 -10z m56 -40 c8 0 14 -7 14 -15 0
-18 -16 -20 -23 -2 -4 8 -6 7 -6 -3 -1 -9 5 -22 12 -30 9 -11 8 -11 -7 0 -18
14 -19 13 -13 -2 11 -30 -8 -28 -22 3 -7 16 -17 29 -22 29 -6 0 -7 -4 -4 -10
3 -5 1 -10 -5 -10 -7 0 -10 6 -7 14 3 7 0 19 -6 26 -10 10 -7 10 11 1 13 -7
26 -19 29 -27 3 -8 10 -14 15 -14 6 0 8 7 4 15 -3 8 -1 15 4 15 5 0 8 6 6 13
-1 6 -1 9 1 5 3 -5 11 -8 19 -8z m664 6 c0 -3 -4 -8 -10 -11 -5 -3 -10 -1 -10
4 0 6 5 11 10 11 6 0 10 -2 10 -4z m-863 -35 c0 -11 -5 -17 -10 -14 -5 3 -8 0
-5 -7 2 -8 -3 -21 -12 -30 -10 -10 -20 -40 -24 -69 -4 -28 -9 -57 -12 -64 -2
-7 4 -24 16 -37 11 -13 20 -30 20 -39 0 -14 -2 -14 -10 -1 -8 12 -10 12 -16
-4 -10 -26 -25 1 -18 34 4 21 3 22 -4 5 -9 -19 -9 -19 -21 4 -7 12 -10 29 -7
37 5 12 2 12 -16 3 -22 -12 -22 -12 -4 16 10 15 13 24 7 21 -6 -4 -11 -1 -11
8 0 20 17 30 23 14 3 -8 6 -6 6 5 1 9 -5 17 -11 18 -10 0 -10 2 0 6 6 2 10 8
7 13 -4 7 12 25 75 86 20 19 29 18 27 -5z m108 -27 c14 -15 25 -32 25 -37 0
-6 -1 -8 -2 -6 -2 2 -16 19 -32 37 -17 17 -26 32 -22 32 4 0 18 -12 31 -26z
m772 -26 c-3 -7 -5 -2 -5 12 0 14 2 19 5 13 2 -7 2 -19 0 -25z m-47 11 c0 -5
5 -7 10 -4 6 3 10 -1 10 -9 0 -9 -7 -16 -15 -16 -8 0 -15 6 -15 14 0 8 -6 17
-12 19 -8 3 -6 6 5 6 9 1 17 -4 17 -10z m-664 -34 c-2 -7 1 -18 7 -24 8 -8 6
-11 -7 -11 -15 0 -16 -3 -7 -14 10 -12 8 -13 -8 -9 -23 6 -29 -14 -11 -35 7
-9 7 -9 -2 -2 -7 6 -16 10 -20 10 -14 0 -9 -27 7 -40 9 -7 13 -15 10 -18 -3
-3 -15 3 -27 14 -12 10 -18 13 -14 7 4 -7 2 -13 -4 -13 -6 0 -9 -4 -5 -9 3 -6
-6 -8 -21 -5 -21 4 -25 1 -21 -10 4 -9 1 -18 -5 -22 -14 -9 -40 25 -31 40 4 7
2 7 -6 0 -9 -9 -10 -17 -2 -31 7 -15 7 -20 -3 -20 -6 0 -13 9 -14 20 0 12 -8
25 -17 29 -8 5 -15 14 -15 21 0 7 4 6 10 -3 8 -12 10 -12 16 3 3 9 11 14 16
11 6 -4 5 3 -1 15 -14 26 3 29 19 4 9 -15 10 -11 6 17 -4 25 -3 31 4 20 5 -8
10 -26 11 -40 0 -22 1 -23 8 -5 5 11 2 30 -6 45 -20 38 -16 56 6 29 11 -13 23
-21 27 -17 4 4 1 14 -6 23 -8 9 -9 15 -2 15 6 0 16 -8 21 -17 6 -11 11 -13 11
-5 0 7 4 11 9 8 5 -4 7 4 4 16 -3 13 -1 19 4 13 4 -5 18 -15 30 -22 22 -13 26
-2 10 24 -6 9 -3 11 8 7 9 -4 14 -12 11 -19z m723 -58 c1 -5 -3 -5 -9 -2 -5 3
-10 16 -9 28 0 21 1 21 9 2 5 -11 9 -24 9 -28z m-35 6 c-5 -17 -3 -23 7 -21 9
2 15 -8 16 -27 2 -23 1 -26 -6 -11 -4 12 -10 16 -14 9 -11 -17 -4 -63 9 -63 9
0 9 -6 1 -24 -13 -28 -19 -26 -23 7 -1 12 -3 25 -3 30 -1 4 -5 7 -10 7 -6 0
-7 -23 -4 -52 3 -29 4 -69 2 -88 -1 -19 -2 -45 -2 -57 1 -13 -3 -23 -8 -23 -5
0 -9 5 -9 12 0 6 -2 9 -5 6 -10 -10 8 -39 21 -34 8 3 14 1 14 -4 0 -6 -10 -10
-23 -10 -16 0 -28 9 -37 28 -8 15 -21 36 -30 46 -8 11 -9 16 -2 12 7 -4 12 -2
12 6 0 10 3 9 11 -2 8 -12 10 -9 6 13 l-4 28 25 -23 c23 -21 25 -21 18 -3 -15
39 -19 95 -7 95 8 0 9 5 3 16 -12 21 -3 64 12 58 15 -6 13 44 -3 73 -9 18 -7
21 14 21 21 0 24 -4 19 -25z m-1364 -27 c0 -7 -50 -56 -50 -49 0 4 -7 -1 -15
-11 -8 -11 -15 -16 -15 -10 1 14 26 44 37 44 6 0 16 7 23 15 12 14 20 19 20
11z m-202 -23 c-1 -10 2 -31 5 -48 5 -20 4 -25 -2 -16 -7 11 -11 9 -22 -10
l-12 -24 -8 28 c-5 19 -2 37 9 57 19 34 31 39 30 13z m41 2 c5 2 6 -7 3 -20
-6 -32 -20 -23 -19 12 0 16 2 22 4 15 3 -6 8 -10 12 -7z m36 -17 c-6 -23 -6
-23 11 -3 13 15 15 16 11 3 -3 -9 -1 -19 6 -21 9 -3 9 -8 0 -18 -11 -11 -13
-10 -13 7 -1 18 -1 18 -14 1 -20 -26 -32 -2 -15 29 16 30 22 31 14 2z m140
-29 c-10 -15 -25 -10 -19 6 4 8 10 12 15 9 5 -3 7 -10 4 -15z m-280 1 c-3 -5
-2 -10 4 -10 7 0 7 -8 2 -22 -5 -13 -14 -22 -20 -20 -6 1 -11 -6 -12 -15 0
-10 -3 -13 -5 -6 -5 12 21 83 31 83 3 0 3 -4 0 -10z m424 -33 c0 -21 -1 -21
-9 -2 -12 28 -12 37 0 30 6 -3 10 -16 9 -28z m261 -10 c0 -16 -3 -18 -12 -9
-6 6 -13 21 -15 33 -3 18 -1 20 12 9 8 -7 15 -22 15 -33z m-363 1 c-3 -8 -6
-5 -6 6 -1 11 2 17 5 13 3 -3 4 -12 1 -19z m13 -35 c-11 -17 -11 -17 -6 0 3
10 6 24 7 30 0 9 2 9 5 0 3 -7 0 -20 -6 -30z m-40 -10 c-11 -17 -11 -17 -6 0
3 10 6 24 7 30 0 9 2 9 5 0 3 -7 0 -20 -6 -30z m513 20 c-4 -11 -3 -14 5 -9 9
5 9 1 2 -18 -8 -22 -6 -25 18 -28 34 -4 44 -36 10 -34 -13 1 -22 7 -20 14 1 7
-3 12 -8 12 -6 0 -15 12 -20 26 -6 15 -15 23 -22 19 -7 -4 -2 3 11 14 28 25
32 26 24 4z m67 7 c0 -5 -7 -10 -16 -10 -8 0 -12 5 -9 10 3 6 10 10 16 10 5 0
9 -4 9 -10z m774 -32 c-4 -13 -8 -30 -9 -38 -5 -53 -18 -91 -26 -78 -8 14 10
102 25 127 12 19 18 12 10 -11z m-761 2 c7 -6 27 -22 46 -35 23 -17 29 -25 18
-25 -9 0 -17 4 -17 9 0 5 -7 11 -15 15 -13 4 -13 2 -5 -14 17 -32 11 -39 -15
-17 -13 12 -20 23 -15 25 5 2 2 14 -6 28 -17 25 -12 32 9 14z m-460 -20 c-10
-11 -19 -20 -21 -20 -1 0 2 9 8 20 6 11 15 20 20 20 6 0 2 -9 -7 -20z m133
-59 c-4 -31 -7 -63 -8 -72 -2 -10 -8 -14 -16 -12 -7 3 -11 11 -9 17 18 43 19
46 5 46 -16 0 -19 -46 -5 -67 5 -8 4 -13 -2 -13 -6 0 -11 -7 -11 -15 0 -8 5
-15 11 -15 8 0 9 -4 0 -13 -6 -8 -9 -16 -7 -18 2 -2 -2 -10 -10 -17 -13 -12
-14 -7 -10 35 3 27 1 55 -4 63 -6 8 -10 10 -10 4 0 -6 -6 -11 -14 -11 -8 0
-15 3 -14 6 2 19 -3 31 -11 26 -14 -8 0 68 13 77 7 5 12 -1 14 -12 4 -25 22
-16 22 11 0 10 4 19 9 19 10 0 9 -6 -5 -60 -5 -23 -4 -22 10 4 9 16 18 37 19
45 4 26 18 42 29 35 6 -4 8 -28 4 -63z m46 37 c-16 -16 -15 -33 1 -19 14 11
27 5 27 -13 0 -6 -5 -4 -10 4 -7 11 -10 5 -10 -22 0 -21 -5 -38 -10 -38 -6 0
-8 12 -4 28 4 18 3 23 -4 13 -6 -8 -12 -9 -16 -3 -8 13 14 62 28 62 6 0 5 -5
-2 -12z m188 -8 c0 -5 -8 -10 -17 -10 -15 0 -16 2 -3 10 19 12 20 12 20 0z
m-393 -52 c-3 -8 -6 -5 -6 6 -1 11 2 17 5 13 3 -3 4 -12 1 -19z m588 4 c-3 -3
-11 0 -18 7 -9 10 -8 11 6 5 10 -3 15 -9 12 -12z m47 -7 c4 -5 12 -10 17 -10
9 0 51 -43 51 -53 0 -2 -8 2 -17 9 -10 8 -22 17 -28 22 -41 30 -58 47 -45 45
8 -2 18 -7 22 -13z m-455 -37 c-3 -8 -6 -5 -6 6 -1 11 2 17 5 13 3 -3 4 -12 1
-19z m987 -73 c-11 -64 -15 -75 -33 -92 -10 -10 -21 -31 -25 -46 -4 -15 -11
-25 -16 -22 -6 3 -10 -1 -10 -9 0 -9 -4 -16 -10 -16 -5 0 -10 -8 -11 -17 0
-12 -2 -13 -6 -5 -4 10 -8 10 -19 1 -11 -9 -14 -8 -14 4 0 8 6 17 13 20 9 3 9
8 -2 21 -12 14 -12 16 4 10 14 -6 16 -3 11 17 -3 13 -3 18 0 12 10 -23 25 -14
22 13 -3 31 18 44 26 17 3 -10 3 2 0 27 l-4 45 17 -27 18 -27 0 39 c0 21 -3
36 -7 34 -4 -3 -5 2 -2 11 5 11 10 13 19 5 11 -9 11 -3 5 27 l-9 38 19 -25
c12 -16 17 -35 14 -55z m-1680 37 c2 -4 0 -14 -6 -22 -8 -12 -9 -11 -4 4 5 14
2 17 -9 12 -9 -3 -13 -2 -10 4 7 12 22 13 29 2z m-65 -23 c1 8 4 12 7 8 4 -3
-3 -21 -15 -39 -11 -18 -21 -27 -21 -20 0 7 -4 11 -9 8 -5 -3 -8 5 -7 18 0 13
4 22 9 19 4 -2 10 4 14 13 6 16 7 16 14 -2 5 -11 8 -13 8 -5z m661 -1 c0 -18
-2 -20 -9 -8 -6 8 -7 18 -5 22 9 14 14 9 14 -14z m61 -35 c-12 -20 -14 -14 -5
12 4 9 9 14 11 11 3 -2 0 -13 -6 -23z m207 -5 c14 -13 22 -16 17 -8 -4 8 4 2
19 -14 14 -16 26 -34 26 -39 0 -6 -7 -2 -15 9 -10 14 -14 15 -15 5 0 -11 -4
-9 -15 5 -19 26 -19 4 1 -24 8 -12 20 -19 26 -16 7 4 8 2 4 -4 -10 -17 -33 -4
-46 28 -7 16 -11 32 -10 36 1 4 -5 11 -14 16 -16 9 -22 28 -9 28 4 0 18 -10
31 -22z m-231 -70 c-2 -13 -4 -5 -4 17 -1 22 1 32 4 23 2 -10 2 -28 0 -40z
m-722 -38 c3 -5 1 -10 -4 -10 -6 0 -11 5 -11 10 0 6 2 10 4 10 3 0 8 -4 11
-10z m939 -5 c-4 -8 -11 -12 -16 -9 -6 4 -5 10 3 15 19 12 19 11 13 -6z m-154
-36 c0 -16 -4 -28 -9 -25 -8 5 -3 56 5 56 2 0 4 -14 4 -31z m-675 11 c-3 -5
-12 -10 -18 -10 -7 0 -6 4 3 10 19 12 23 12 15 0z m715 2 c0 -5 -7 -17 -15
-28 -14 -18 -14 -17 -4 9 12 27 19 34 19 19z m-520 -36 c0 -3 -4 -8 -10 -11
-5 -3 -10 -1 -10 4 0 6 5 11 10 11 6 0 10 -2 10 -4z m-265 -15 c3 -5 1 -12 -5
-16 -5 -3 -10 1 -10 9 0 18 6 21 15 7z m69 -26 c3 -8 1 -15 -3 -15 -5 0 -11 7
-15 15 -3 8 -1 15 3 15 5 0 11 -7 15 -15z m1384 -38 c2 -15 8 -27 13 -27 6 0
7 5 4 10 -3 6 -3 16 1 22 13 21 22 -34 10 -62 -18 -43 -69 -115 -74 -102 -6
20 -16 14 -31 -19 -11 -25 -18 -30 -38 -26 -17 3 -23 1 -19 -9 6 -15 -19 -44
-37 -44 -7 0 -4 7 6 14 10 8 14 17 9 20 -6 3 -22 -8 -36 -24 -14 -17 -28 -30
-31 -30 -20 1 -25 -2 -25 -14 0 -7 -7 -19 -15 -26 -8 -7 -15 -23 -15 -35 0
-13 -6 -35 -14 -50 -8 -15 -12 -33 -10 -40 3 -7 0 -16 -7 -21 -8 -4 -10 -3 -5
4 4 7 3 12 -2 12 -5 0 -12 -9 -15 -20 -3 -11 0 -20 6 -20 7 0 6 -4 -3 -10 -9
-6 -17 -5 -21 2 -4 6 -12 7 -18 4 -6 -4 -11 -3 -11 1 0 15 -38 12 -44 -3 -3
-8 -13 -14 -23 -14 -15 0 -16 -2 -3 -10 21 -13 3 -13 -22 1 -15 8 -22 8 -28 0
-5 -9 -10 -8 -20 4 -10 12 -10 15 4 15 10 0 14 5 11 10 -9 14 4 51 16 44 5 -3
7 -9 4 -14 -3 -4 4 -10 15 -13 14 -4 24 2 32 16 7 12 11 25 10 29 -1 4 5 5 13
2 10 -4 15 0 15 16 0 11 5 18 10 15 6 -3 10 1 10 10 0 8 7 18 15 21 8 4 15 10
15 16 0 5 7 16 15 25 8 8 13 19 9 24 -3 5 0 8 8 7 7 -2 12 3 10 10 -1 6 2 12
8 12 5 0 10 7 10 15 0 8 8 23 18 33 10 10 16 24 14 30 -2 7 0 12 6 12 5 0 9
16 10 35 1 37 27 101 44 111 5 4 3 -7 -5 -22 -8 -16 -18 -40 -22 -54 -7 -24
-7 -24 9 -5 15 20 15 20 16 -5 1 -22 2 -23 11 -7 6 9 14 15 20 12 5 -4 9 -1 9
4 0 13 22 10 32 -4 5 -6 8 -5 8 2 0 7 7 10 17 6 11 -4 14 -3 9 5 -5 8 0 12 13
12 17 0 21 6 21 36 0 24 4 33 12 28 8 -5 9 -2 5 10 -5 13 -3 17 7 13 10 -4 12
0 8 15 -3 15 -1 19 9 16 8 -2 15 -17 17 -31z m49 1 c-3 -8 -6 -5 -6 6 -1 11 2
17 5 13 3 -3 4 -12 1 -19z m-636 -51 c-11 -17 -21 -27 -21 -22 0 6 7 21 16 33
8 12 12 22 9 22 -3 0 -3 5 1 12 6 9 9 9 12 0 2 -7 -6 -27 -17 -45z m-30 10
c-10 -9 -11 -8 -5 6 3 10 9 15 12 12 3 -3 0 -11 -7 -18z m-761 -2 c11 -13 10
-14 -4 -9 -9 3 -16 10 -16 15 0 13 6 11 20 -6z m906 -9 c-7 -30 3 -41 20 -18
10 14 11 9 4 -28 -5 -25 -9 -49 -10 -53 0 -5 -4 -6 -9 -2 -5 3 -11 -5 -14 -17
-2 -13 -2 9 -1 47 3 93 3 95 10 95 3 0 4 -11 0 -24z m-1128 -3 c-10 -13 2 -18
27 -13 5 1 7 -2 2 -6 -4 -4 -1 -17 8 -30 13 -20 12 -22 -5 -27 -26 -7 -31 1
-19 27 10 20 10 20 -5 2 -15 -18 -17 -18 -34 -2 -26 23 -18 61 13 61 17 0 21
-3 13 -12z m1231 -45 c-13 -54 -31 -86 -24 -41 6 35 22 83 29 83 2 0 0 -19 -5
-42z m64 22 c-3 -12 -8 -19 -11 -16 -5 6 5 36 12 36 2 0 2 -9 -1 -20z m-189
-58 l-7 -37 -7 30 -6 30 -8 -30 c-4 -16 -13 -33 -19 -37 -7 -5 -3 -8 11 -8 12
0 22 -2 22 -4 0 -13 -13 -36 -21 -36 -4 0 -6 7 -3 15 4 9 0 15 -10 15 -19 0
-19 1 -3 63 7 26 16 45 20 41 4 -4 10 1 13 11 12 31 27 -12 18 -53z m90 59 c3
-5 0 -23 -8 -41 -15 -36 -27 -21 -19 23 5 27 17 35 27 18z m-1279 -27 c20 -20
15 -36 -15 -51 -31 -15 -43 -7 -37 25 5 25 4 25 -9 8 -14 -20 -29 -19 -16 0 7
11 42 33 54 34 4 0 14 -7 23 -16z m1075 7 c0 -5 -7 -12 -16 -15 -14 -5 -15 -4
-4 9 14 17 20 19 20 6z m40 5 c0 -3 -4 -8 -10 -11 -5 -3 -10 -1 -10 4 0 6 5
11 10 11 6 0 10 -2 10 -4z m-1257 -21 c-3 -9 -8 -14 -10 -11 -3 3 -2 9 2 15 9
16 15 13 8 -4z m1115 -5 c-7 -10 -14 -17 -17 -15 -4 4 18 35 25 35 2 0 -1 -9
-8 -20z m384 -22 c-8 -8 -9 -4 -5 13 4 13 8 18 11 10 2 -7 -1 -18 -6 -23z m34
-4 c-6 -19 -12 -28 -14 -20 -3 13 14 56 22 56 2 0 -2 -16 -8 -36z m-289 -6
c-3 -7 -5 -2 -5 12 0 14 2 19 5 13 2 -7 2 -19 0 -25z m-1318 -51 c-2 -2 -17
-7 -33 -11 -26 -6 -28 -5 -17 8 7 9 17 13 22 10 5 -3 9 0 9 7 0 10 3 10 12 1
6 -6 10 -13 7 -15z m1619 3 c-7 -10 -14 -17 -17 -15 -4 4 18 35 25 35 2 0 -1
-9 -8 -20z m-1643 -40 c-3 -5 -12 -10 -18 -10 -7 0 -6 4 3 10 19 12 23 12 15
0z m1405 -10 c0 -5 -4 -10 -10 -10 -5 0 -10 5 -10 10 0 6 5 10 10 10 6 0 10
-4 10 -10z m7 -42 c-3 -8 -6 -5 -6 6 -1 11 2 17 5 13 3 -3 4 -12 1 -19z m-617
-13 c0 -8 -2 -15 -4 -15 -2 0 -6 7 -10 15 -3 8 -1 15 4 15 6 0 10 -7 10 -15z
m231 -18 c-10 -9 -11 -8 -5 6 3 10 9 15 12 12 3 -3 0 -11 -7 -18z m442 3 c-3
-11 -7 -20 -9 -20 -2 0 -4 9 -4 20 0 11 4 20 9 20 5 0 7 -9 4 -20z m-778 0
c-3 -5 -12 -10 -18 -10 -7 0 -6 4 3 10 19 12 23 12 15 0z m240 -14 c0 -13 -4
-28 -8 -32 -4 -5 -5 0 -1 10 6 17 4 18 -22 12 l-29 -7 30 21 c17 11 30 20 30
20 1 0 1 -11 0 -24z m-600 3 c11 -17 -1 -21 -15 -4 -8 9 -8 15 -2 15 6 0 14
-5 17 -11z m691 -36 c13 -20 13 -25 2 -16 -8 7 -18 10 -21 6 -4 -3 -7 0 -8 8
0 8 -4 6 -9 -6 -6 -14 -9 -15 -9 -4 -1 12 16 39 25 39 1 0 10 -12 20 -27z
m486 3 c3 -15 -1 -27 -13 -34 -15 -10 -17 -9 -12 5 4 11 3 14 -5 9 -8 -5 -10
-2 -5 9 5 13 7 14 14 3 6 -9 9 -7 9 10 0 29 6 28 12 -2z m-422 9 c0 -2 -9 -9
-19 -15 -14 -7 -22 -7 -27 2 -4 6 -3 8 2 5 6 -3 16 -2 24 4 17 10 20 11 20 4z
m-183 -20 c0 -8 -4 -15 -9 -15 -10 0 -11 14 -1 23 9 10 10 9 10 -8z m-847 -11
c0 -8 -19 -13 -24 -6 -3 5 1 9 9 9 8 0 15 -2 15 -3z m1302 -29 c6 -14 19 -25
29 -25 25 0 30 -12 13 -35 -8 -10 -14 -16 -14 -12 0 24 -21 46 -37 40 -7 -3
-13 0 -13 7 0 6 5 8 13 4 6 -4 4 2 -5 13 -20 22 -23 33 -8 33 6 0 16 -11 22
-25z m-1574 -20 c-3 -3 -9 2 -12 12 -6 14 -5 15 5 6 7 -7 10 -15 7 -18z m126
9 c5 -14 4 -15 -9 -4 -17 14 -19 20 -6 20 5 0 12 -7 15 -16z m34 7 c10 -6 9
-11 -4 -22 -14 -11 -16 -11 -10 0 5 8 3 17 -5 22 -8 5 -9 9 -4 9 6 0 16 -4 23
-9z m1116 -16 c-6 -16 -24 -21 -24 -7 0 11 11 22 21 22 5 0 6 -7 3 -15z m276
11 c0 -3 -4 -8 -10 -11 -5 -3 -10 -1 -10 4 0 6 5 11 10 11 6 0 10 -2 10 -4z
m-1576 -32 c3 -8 2 -12 -4 -9 -6 3 -10 10 -10 16 0 14 7 11 14 -7z m-449 -13
c-6 -10 -45 -22 -45 -14 0 3 8 12 17 19 18 13 37 9 28 -5z m455 -25 c0 -2 -7
-7 -16 -10 -8 -3 -12 -2 -9 4 6 10 25 14 25 6z m65 -16 c3 -6 -1 -7 -9 -4 -18
7 -21 14 -7 14 6 0 13 -4 16 -10z m-108 -22 c-3 -8 -6 -5 -6 6 -1 11 2 17 5
13 3 -3 4 -12 1 -19z m33 2 c0 -5 -4 -10 -10 -10 -5 0 -10 5 -10 10 0 6 5 10
10 10 6 0 10 -4 10 -10z m195 0 c3 -6 -1 -7 -9 -4 -18 7 -21 14 -7 14 6 0 13
-4 16 -10z m576 -34 c19 5 21 3 9 -5 -21 -15 -33 -14 -56 5 -19 15 -18 15 2 5
11 -5 32 -8 45 -5z m-210 -13 c12 -16 12 -17 -1 -7 -8 6 -22 14 -30 17 -13 5
-12 6 1 6 9 1 23 -7 30 -16z m-461 -12 c0 -5 -7 -11 -14 -14 -10 -4 -13 -1 -9
9 6 15 23 19 23 5z m658 -21 c7 0 12 -5 12 -10 0 -7 -6 -7 -19 0 -28 15 -35
12 -20 -7 9 -11 10 -14 2 -9 -7 4 -20 3 -29 -2 -14 -8 -12 -10 12 -16 17 -5
30 -3 32 3 4 12 32 -12 32 -27 0 -6 6 -12 12 -14 7 -3 2 -7 -10 -10 -12 -4
-25 -1 -29 4 -4 7 -1 8 7 3 9 -5 11 -4 6 3 -10 17 -29 15 -23 -3 4 -8 2 -17
-3 -20 -6 -4 -10 0 -11 7 0 9 -2 10 -5 1 -3 -7 -12 -9 -20 -6 -7 3 -12 9 -9
13 3 4 -4 10 -15 13 -13 3 -21 -1 -25 -14 -7 -21 -20 -25 -30 -9 -3 6 2 10 11
10 14 0 15 3 6 12 -17 17 -15 29 3 22 22 -9 18 4 -5 16 -11 6 -20 7 -19 3 1
-4 1 -14 0 -22 -1 -11 -4 -11 -18 0 -15 13 -15 12 -4 -8 10 -19 9 -23 -4 -23
-10 0 -13 5 -9 12 5 8 2 9 -10 5 -10 -4 -27 -1 -37 7 -11 8 -29 12 -40 9 -14
-4 -19 0 -19 13 0 15 2 16 9 5 5 -7 13 -11 19 -7 6 3 22 2 37 -4 22 -8 26 -8
22 4 -4 9 5 18 24 26 24 10 33 10 54 -4 14 -9 25 -13 24 -9 -4 23 3 32 19 26
9 -3 14 -3 10 1 -4 5 -1 14 5 21 10 11 15 11 28 -1 8 -8 21 -14 27 -14z m-395
-12 c9 0 17 -4 17 -10 0 -6 -3 -8 -7 -5 -3 4 -11 3 -18 -3 -7 -6 -17 -2 -29
12 -18 20 -18 21 0 13 11 -4 27 -7 37 -7z m297 2 c0 -5 -2 -10 -4 -10 -3 0 -8
5 -11 10 -3 6 -1 10 4 10 6 0 11 -4 11 -10z m-405 -18 c-3 -3 -11 0 -18 7 -9
10 -8 11 6 5 10 -3 15 -9 12 -12z m30 8 c3 -5 1 -10 -4 -10 -6 0 -11 5 -11 10
0 6 2 10 4 10 3 0 8 -4 11 -10z m-1248 -6 c-3 -3 -12 -4 -19 -1 -8 3 -5 6 6 6
11 1 17 -2 13 -5z m1090 0 c-3 -3 -12 -4 -19 -1 -8 3 -5 6 6 6 11 1 17 -2 13
-5z m-989 -11 c-10 -2 -26 -2 -35 0 -10 3 -2 5 17 5 19 0 27 -2 18 -5z m1017
-13 c11 -5 14 -9 7 -9 -8 -1 -10 -6 -6 -13 4 -7 -1 -6 -12 3 -10 9 -26 19 -34
22 -11 4 -9 5 5 6 11 0 29 -4 40 -9z m203 -12 c9 -9 12 -9 12 1 0 9 4 10 13 4
6 -6 22 -9 35 -8 12 1 26 -3 31 -9 7 -8 0 -11 -22 -9 -43 3 -65 8 -73 15 -3 4
-12 4 -20 1 -8 -3 -14 0 -14 6 0 15 23 14 38 -1z m442 -60 c0 -5 10 -18 23
-29 22 -19 22 -19 -11 -3 -18 9 -30 20 -27 25 4 5 1 9 -4 9 -6 0 -11 -7 -11
-16 0 -14 -2 -15 -17 -3 -15 13 -15 12 -2 -8 7 -12 16 -18 20 -12 3 6 11 4 19
-6 11 -13 10 -14 -5 -9 -14 6 -16 4 -10 -6 5 -9 4 -11 -4 -6 -6 4 -18 3 -26
-4 -10 -8 -15 -8 -21 1 -4 8 -3 9 4 5 7 -4 12 -4 12 1 0 4 -12 13 -26 20 -25
12 -26 11 -20 -15 6 -25 5 -25 -6 -7 -7 11 -13 23 -13 27 0 4 -9 15 -20 24
-17 13 -15 13 9 -1 26 -16 28 -16 23 -1 -4 9 -2 16 3 16 5 0 12 -9 15 -20 9
-27 23 -25 18 3 -4 20 0 22 36 24 23 0 41 -3 41 -9z m-567 -25 c4 -2 7 -11 7
-19 0 -8 9 -14 20 -14 26 0 26 -16 -2 -31 -18 -10 -20 -9 -15 5 7 18 -30 49
-47 39 -6 -3 -8 -3 -4 2 4 4 0 14 -10 22 -15 12 -14 13 13 7 17 -4 33 -9 38
-11z m402 7 c3 -6 -4 -10 -17 -10 -18 0 -20 2 -8 10 19 12 18 12 25 0z m-1300
-16 c-27 -7 -59 -13 -70 -13 -24 1 71 26 100 27 11 0 -2 -6 -30 -14z m972 0
c-3 -3 -12 -4 -19 -1 -8 3 -5 6 6 6 11 1 17 -2 13 -5z m365 -34 c10 -17 13
-32 7 -35 -5 -4 -9 1 -9 9 0 9 -5 16 -11 16 -5 0 -7 -5 -3 -12 4 -7 3 -8 -4
-4 -11 7 -13 56 -2 56 3 0 13 -13 22 -30z m-1469 13 c-13 -2 -33 -2 -45 0 -13
2 -3 4 22 4 25 0 35 -2 23 -4z m-90 -10 c-7 -2 -19 -2 -25 0 -7 3 -2 5 12 5
14 0 19 -2 13 -5z m-66 -9 c-3 -3 -12 -4 -19 -1 -8 3 -5 6 6 6 11 1 17 -2 13
-5z m-44 -11 c-7 -2 -21 -2 -30 0 -10 3 -4 5 12 5 17 0 24 -2 18 -5z m1751
-17 c-8 -21 -28 -21 -45 2 -11 14 -11 15 1 5 18 -16 34 -17 24 -1 -4 7 -3 8 4
4 7 -4 12 -2 12 5 0 7 2 10 5 7 3 -3 3 -13 -1 -22z m-1811 7 c-7 -2 -19 -2
-25 0 -7 3 -2 5 12 5 14 0 19 -2 13 -5z m-60 -10 c-7 -2 -19 -2 -25 0 -7 3 -2
5 12 5 14 0 19 -2 13 -5z m1907 -73 c0 -5 -5 -10 -11 -10 -5 0 -7 5 -4 10 3 6
8 10 11 10 2 0 4 -4 4 -10z m50 -21 c0 -6 -4 -7 -10 -4 -5 3 -10 11 -10 16 0
6 5 7 10 4 6 -3 10 -11 10 -16z m-8 -53 c-3 -5 -9 -1 -14 8 -12 22 -29 21 -22
-1 5 -15 4 -15 -4 -3 -18 24 5 43 27 22 10 -9 16 -21 13 -26z m-1620 27 c-10
-4 -9 -8 5 -19 17 -13 17 -13 -4 -14 -12 0 -58 -13 -102 -29 -43 -16 -99 -31
-123 -35 l-43 -5 50 15 c76 23 147 52 180 74 17 11 35 20 40 19 6 0 4 -3 -3
-6z m268 -10 c0 -5 -10 -13 -23 -19 -44 -21 -194 -108 -272 -159 -115 -74
-141 -90 -130 -78 17 18 188 129 240 156 28 14 77 44 110 66 60 41 75 48 75
34z m-30 -47 c0 -3 -26 -19 -57 -37 -32 -17 -74 -41 -93 -52 -66 -38 -15 1 60
47 72 43 90 51 90 42z m1628 -77 c-3 -8 -7 -3 -11 10 -4 17 -3 21 5 13 5 -5 8
-16 6 -23z m-1 -101 c-3 -8 -6 -5 -6 6 -1 11 2 17 5 13 3 -3 4 -12 1 -19z
m-10 -40 c-3 -8 -6 -5 -6 6 -1 11 2 17 5 13 3 -3 4 -12 1 -19z m-437 -18 c0
-5 -4 -10 -10 -10 -5 0 -10 5 -10 10 0 6 5 10 10 10 6 0 10 -4 10 -10z m-1490
-4 c0 -2 -22 -20 -50 -40 -27 -20 -50 -34 -50 -31 0 4 91 74 98 75 1 0 2 -2 2
-4z m1917 -18 c-3 -8 -6 -5 -6 6 -1 11 2 17 5 13 3 -3 4 -12 1 -19z m-10 -40
c-3 -8 -6 -5 -6 6 -1 11 2 17 5 13 3 -3 4 -12 1 -19z m-2042 -38 c-3 -5 -20
-19 -38 -30 -32 -22 -32 -22 3 9 37 32 45 37 35 21z m1992 -142 c-3 -7 -5 -2
-5 12 0 14 2 19 5 13 2 -7 2 -19 0 -25z m-5 -53 c-6 -34 -12 -32 -12 6 0 16 4
28 9 25 4 -3 6 -17 3 -31z m-275 -27 c-3 -8 -6 -5 -6 6 -1 11 2 17 5 13 3 -3
4 -12 1 -19z m269 -35 c-3 -3 -1 -14 5 -24 7 -14 6 -19 -4 -19 -7 0 -14 13
-15 31 -2 20 1 28 8 24 6 -4 9 -9 6 -12z m-71 -13 c3 -6 -1 -7 -9 -4 -18 7
-21 14 -7 14 6 0 13 -4 16 -10z m-17 -28 c6 -18 -15 -14 -22 4 -4 10 -1 14 6
12 6 -2 14 -10 16 -16z m219 -14 c-3 -8 -6 -5 -6 6 -1 11 2 17 5 13 3 -3 4
-12 1 -19z m56 15 c-7 -2 -19 -2 -25 0 -7 3 -2 5 12 5 14 0 19 -2 13 -5z m0
-33 c-3 -12 -8 -19 -11 -16 -5 6 5 36 12 36 2 0 2 -9 -1 -20z m-167 -25 c1 -8
-2 -15 -7 -15 -5 0 -9 4 -9 9 0 5 -3 18 -6 28 -6 15 -4 16 6 6 8 -7 15 -20 16
-28z m34 11 c0 -3 -4 -8 -10 -11 -5 -3 -10 -1 -10 4 0 6 5 11 10 11 6 0 10 -2
10 -4z m80 -10 c0 -3 -4 -8 -10 -11 -5 -3 -10 -1 -10 4 0 6 5 11 10 11 6 0 10
-2 10 -4z m307 -18 c-3 -8 -6 -5 -6 6 -1 11 2 17 5 13 3 -3 4 -12 1 -19z
m-464 3 c4 -1 7 -5 7 -11 0 -5 -7 -7 -16 -3 -14 5 -16 2 -11 -19 9 -35 -3 -43
-20 -12 -20 39 -17 55 10 50 12 -3 25 -5 30 -5z m197 -12 c0 -5 -4 -9 -10 -9
-5 0 -10 7 -10 16 0 8 5 12 10 9 6 -3 10 -10 10 -16z m190 -99 c-12 -22 -31
-27 -27 -7 2 10 18 22 35 26 1 1 -2 -8 -8 -19z m-1070 -139 c0 -5 -9 -7 -20
-4 -11 3 -20 7 -20 9 0 2 9 4 20 4 11 0 20 -4 20 -9z m967 -57 c1 -5 -13 -16
-32 -25 -19 -9 -35 -13 -35 -8 0 4 9 11 21 14 16 5 18 9 8 21 -10 12 -8 14 12
11 12 -2 24 -8 26 -13z m-111 -57 c10 4 17 -2 21 -16 4 -17 8 -19 19 -10 8 6
14 8 14 4 0 -4 7 -1 17 6 14 12 16 12 11 -1 -2 -8 -12 -15 -22 -15 -9 0 -21
-7 -26 -15 -6 -8 -10 -10 -10 -3 0 6 -10 9 -22 7 -13 -2 -17 -2 -10 2 17 8 15
25 -3 18 -11 -5 -15 1 -14 22 1 16 3 21 6 12 2 -10 10 -15 19 -11z m149 -17
c-4 -12 -9 -19 -12 -17 -3 3 -2 15 2 27 4 12 9 19 12 17 3 -3 2 -15 -2 -27z
m-175 -24 c0 -15 -18 -31 -26 -23 -7 7 7 37 17 37 5 0 9 -6 9 -14z m-35 -185
c-3 -2 -5 2 -5 10 0 12 -2 11 -10 -1 -7 -11 -12 -12 -20 -4 -9 9 -7 17 7 33
l18 21 7 -27 c4 -15 5 -29 3 -32z m-25 -61 c0 -5 -2 -10 -4 -10 -3 0 -8 5 -11
10 -3 6 -1 10 4 10 6 0 11 -4 11 -10z m1025 -21 c5 -5 -5 -4 -23 2 -17 6 -32
13 -32 16 0 7 43 -8 55 -18z"/>
<path d="M3380 3771 c0 -6 4 -13 10 -16 6 -3 7 1 4 9 -7 18 -14 21 -14 7z"/>
<path d="M3130 3231 c0 -6 4 -13 10 -16 6 -3 7 1 4 9 -7 18 -14 21 -14 7z"/>
<path d="M2320 3161 c0 -7 -4 -9 -10 -6 -5 3 -10 1 -10 -4 0 -6 4 -11 9 -11
13 0 25 20 17 27 -3 4 -6 1 -6 -6z"/>
<path d="M3105 3010 c-3 -5 -2 -10 4 -10 5 0 13 5 16 10 3 6 2 10 -4 10 -5 0
-13 -4 -16 -10z"/>
<path d="M2822 3015 c0 -16 2 -22 5 -12 2 9 2 23 0 30 -3 6 -5 -1 -5 -18z"/>
<path d="M2741 2923 c0 -11 3 -13 6 -5 2 6 10 9 15 6 7 -4 8 -2 4 4 -11 18
-26 14 -25 -5z"/>
<path d="M3551 2534 c0 -11 3 -14 6 -6 3 7 2 16 -1 19 -3 4 -6 -2 -5 -13z"/>
<path d="M1847 2443 c-4 -3 -7 -11 -7 -17 0 -6 5 -5 12 2 6 6 9 14 7 17 -3 3
-9 2 -12 -2z"/>
<path d="M2027 3016 c-4 -10 -7 -25 -6 -34 0 -11 4 -9 10 7 5 13 8 29 6 35 -2
5 -6 2 -10 -8z"/>
<path d="M1910 2941 c0 -6 4 -13 10 -16 6 -3 7 1 4 9 -7 18 -14 21 -14 7z"/>
<path d="M2026 2937 c3 -10 9 -15 12 -12 3 3 0 11 -7 18 -10 9 -11 8 -5 -6z"/>
<path d="M2008 2889 c-23 -24 -22 -32 0 -53 18 -15 19 -14 20 29 1 25 1 45 0
44 -2 0 -11 -9 -20 -20z"/>
<path d="M1750 2871 c0 -6 4 -13 10 -16 6 -3 7 1 4 9 -7 18 -14 21 -14 7z"/>
<path d="M1970 2851 c0 -11 -3 -26 -6 -35 -3 -9 -2 -16 3 -16 5 0 10 16 11 35
2 19 0 35 -3 35 -3 0 -5 -9 -5 -19z"/>
<path d="M1926 2821 c-4 -6 -11 -9 -15 -7 -3 3 -7 -5 -6 -17 0 -12 -4 -23 -9
-24 -5 0 -13 -8 -18 -17 -5 -9 -13 -14 -19 -11 -5 4 -9 -1 -9 -10 0 -9 4 -14
9 -10 6 3 14 -3 20 -12 10 -17 10 -17 11 0 0 9 5 17 10 17 6 0 10 7 10 16 0
11 5 14 16 10 14 -5 15 -4 4 8 -6 9 -10 21 -7 28 3 8 6 6 6 -5 1 -19 22 -19
28 -1 6 17 -23 49 -31 35z"/>
<path d="M2010 2720 c0 -5 5 -10 10 -10 6 0 10 5 10 10 0 6 -4 10 -10 10 -5 0
-10 -4 -10 -10z"/>
<path d="M1581 2624 c0 -11 3 -14 6 -6 3 7 2 16 -1 19 -3 4 -6 -2 -5 -13z"/>
<path d="M1598 2602 c-19 -4 -24 -17 -9 -27 5 -3 13 0 17 6 4 8 9 7 15 -2 5
-8 9 -9 9 -4 0 19 -15 31 -32 27z"/>
<path d="M2046 2587 c3 -10 9 -15 12 -12 3 3 0 11 -7 18 -10 9 -11 8 -5 -6z"/>
<path d="M1546 2555 c-13 -19 -13 -23 -2 -19 8 3 16 14 19 25 7 25 3 24 -17
-6z"/>
<path d="M2040 2549 c0 -5 5 -7 10 -4 6 3 10 8 10 11 0 2 -4 4 -10 4 -5 0 -10
-5 -10 -11z"/>
<path d="M2115 2500 c-3 -5 -1 -10 4 -10 6 0 11 5 11 10 0 6 -2 10 -4 10 -3 0
-8 -4 -11 -10z"/>
<path d="M2091 2464 c0 -11 3 -14 6 -6 3 7 2 16 -1 19 -3 4 -6 -2 -5 -13z"/>
<path d="M1149 2378 c-1 -7 -1 -19 0 -26 2 -9 -4 -12 -17 -8 -38 12 -54 -3
-47 -44 7 -41 -6 -60 -30 -40 -10 8 -15 8 -21 -1 -4 -8 -3 -9 4 -5 7 4 12 2
12 -3 0 -6 11 -11 25 -11 16 0 25 6 25 16 0 8 5 12 11 9 6 -4 8 -13 5 -21 -3
-7 -1 -16 5 -19 5 -4 8 -2 7 3 -2 6 2 10 7 10 6 1 9 -6 7 -14 -2 -11 4 -13 25
-9 l28 5 -25 -11 c-21 -10 -22 -13 -7 -16 9 -3 17 -10 17 -16 0 -7 4 -6 10 3
5 8 10 10 10 4 0 -7 8 -14 19 -17 16 -4 17 -1 8 27 -5 17 -12 37 -13 44 -2 8
-9 10 -16 6 -7 -4 -9 -3 -5 1 13 15 37 14 37 -1 0 -8 8 -14 18 -14 13 0 14 -2
3 -9 -9 -6 -12 -18 -7 -37 4 -16 7 -35 8 -41 1 -7 3 -11 6 -8 3 2 14 -1 25 -7
17 -9 19 -8 13 8 -4 10 -9 49 -12 88 -3 39 -7 82 -9 96 -2 14 -4 30 -4 36 -1
17 -61 24 -61 7 0 -7 -5 -13 -11 -13 -5 0 -8 4 -4 9 3 5 1 12 -5 16 -5 3 -10
1 -10 -4 0 -6 -5 -11 -11 -11 -5 0 -8 4 -4 9 3 5 1 12 -5 16 -5 3 -11 0 -11
-7z m74 -76 c4 -21 3 -31 -3 -27 -6 3 -10 20 -10 37 0 38 5 34 13 -10z m45
-34 c-2 -6 -10 -14 -16 -16 -7 -2 -10 2 -6 12 7 18 28 22 22 4z"/>
<path d="M1056 2292 c-3 -6 -1 -14 5 -17 15 -10 25 3 12 16 -7 7 -13 7 -17 1z"/>
<path d="M925 2260 c3 -5 11 -10 16 -10 6 0 7 5 4 10 -3 6 -11 10 -16 10 -6 0
-7 -4 -4 -10z"/>
<path d="M911 2224 c0 -11 3 -14 6 -6 3 7 2 16 -1 19 -3 4 -6 -2 -5 -13z"/>
<path d="M1155 2140 c-3 -6 1 -7 9 -4 18 7 21 14 7 14 -6 0 -13 -4 -16 -10z"/>
<path d="M1100 2110 c-24 -15 -7 -18 20 -3 14 7 18 13 10 13 -8 0 -22 -4 -30
-10z"/>
<path d="M1156 2112 c-3 -5 1 -9 9 -9 8 0 15 4 15 9 0 4 -4 8 -9 8 -6 0 -12
-4 -15 -8z"/>
<path d="M1283 1961 c1 -11 6 -17 14 -14 10 4 11 9 2 19 -15 19 -18 18 -16 -5z"/>
<path d="M1226 1955 c4 -8 8 -15 10 -15 2 0 4 7 4 15 0 8 -4 15 -10 15 -5 0
-7 -7 -4 -15z"/>
<path d="M1317 1921 c2 -7 -2 -21 -9 -30 -8 -10 -5 -9 10 3 12 11 22 14 22 8
0 -6 -5 -14 -11 -18 -6 -3 -8 -16 -5 -28 3 -13 -3 -38 -14 -59 -15 -28 -18
-42 -10 -57 5 -10 10 -22 10 -27 -1 -4 -6 2 -14 15 -11 21 -14 22 -25 8 -17
-20 3 -48 27 -39 14 6 15 5 2 -9 -14 -15 -16 -15 -30 3 -15 19 -16 19 -38 -11
-13 -17 -20 -36 -16 -42 4 -7 3 -8 -4 -4 -8 5 -12 -1 -12 -14 0 -12 -4 -18
-10 -15 -6 4 -9 -5 -8 -20 2 -15 7 -24 15 -21 7 3 10 -3 8 -16 -4 -17 0 -19
20 -16 21 4 23 2 15 -13 -16 -28 -11 -37 5 -9 8 14 15 34 16 45 0 11 6 3 11
-18 7 -25 15 -37 23 -33 7 2 16 -2 19 -10 3 -8 11 -14 18 -14 9 0 9 3 -2 10
-8 5 -11 12 -7 16 3 4 13 2 20 -4 8 -7 17 -9 20 -5 4 3 7 -5 7 -18 0 -19 2
-21 10 -9 8 12 10 12 11 -5 0 -16 3 -14 13 9 8 18 16 24 20 17 4 -6 5 -15 1
-20 -7 -12 12 -24 25 -16 8 5 7 12 -2 23 -12 15 -11 16 5 3 16 -13 20 -13 29
0 8 11 9 10 4 -5 -5 -13 -2 -17 9 -12 8 3 15 0 15 -7 0 -7 10 -1 21 13 17 22
19 23 17 5 -2 -14 2 -20 15 -19 9 1 17 -3 17 -9 0 -6 2 -8 5 -5 8 8 -6 39 -15
33 -4 -2 -5 26 -3 63 3 46 1 63 -6 52 -5 -8 -7 -18 -5 -22 3 -4 1 -8 -5 -8 -5
0 -12 6 -14 13 -3 7 -6 4 -6 -6 -1 -10 -6 -15 -11 -12 -6 4 -8 11 -5 16 4 5 1
9 -5 9 -6 0 -13 -7 -16 -15 -5 -12 -8 -12 -20 0 -8 7 -14 18 -14 24 0 19 -37
71 -45 63 -4 -4 -5 0 -3 8 3 8 1 23 -4 33 -6 13 -5 17 7 17 9 0 14 -4 10 -9
-3 -5 -1 -12 4 -15 18 -11 5 24 -15 39 -25 19 -38 19 -30 -1 4 -11 2 -15 -8
-11 -8 3 -17 1 -20 -6 -2 -7 -5 -5 -5 4 -1 9 7 20 16 23 15 6 15 8 3 16 -8 6
-10 10 -4 10 5 0 19 -7 30 -15 24 -18 54 -21 36 -3 -20 20 -13 27 18 18 23 -6
28 -6 23 3 -4 7 -8 19 -8 27 0 8 -5 14 -12 13 -14 -3 -53 44 -53 64 0 11 -4
11 -21 3 -19 -11 -20 -10 -8 12 6 13 8 20 4 16 -5 -5 -15 1 -22 12 -8 11 -18
18 -23 15 -4 -3 -10 -2 -13 2 -2 5 -2 2 0 -6z m33 -55 c0 -3 -4 -8 -10 -11 -5
-3 -10 -1 -10 4 0 6 5 11 10 11 6 0 10 -2 10 -4z m37 -28 c-3 -8 -6 -5 -6 6
-1 11 2 17 5 13 3 -3 4 -12 1 -19z m48 -48 c3 -5 1 -10 -4 -10 -6 0 -11 5 -11
10 0 6 2 10 4 10 3 0 8 -4 11 -10z m-41 -106 c3 -8 2 -12 -4 -9 -6 3 -10 10
-10 16 0 14 7 11 14 -7z m-50 -39 c7 -34 -7 -15 -19 25 -5 16 -4 22 3 15 5 -5
12 -23 16 -40z m-21 -4 c2 -10 1 -25 -4 -32 -6 -10 -9 -3 -10 21 0 27 -2 30
-8 16 -6 -17 -8 -17 -14 -3 -3 8 -1 18 6 20 16 6 24 1 30 -22z m57 8 c0 -5 4
-8 9 -5 5 3 12 -1 15 -10 4 -9 9 -14 12 -11 8 8 34 -18 34 -34 0 -8 -4 -8 -12
-2 -7 6 -25 9 -40 8 -17 -1 -28 3 -29 12 -2 22 -4 27 -12 41 -5 8 -3 12 7 12
9 0 16 -5 16 -11z m-117 -49 c-7 -28 -13 -25 -13 6 0 14 4 23 9 20 5 -3 7 -15
4 -26z m-36 -12 c-3 -7 -5 -2 -5 12 0 14 2 19 5 13 2 -7 2 -19 0 -25z m320
-60 c-3 -8 -6 -5 -6 6 -1 11 2 17 5 13 3 -3 4 -12 1 -19z"/>
<path d="M1411 1924 c0 -11 3 -14 6 -6 3 7 2 16 -1 19 -3 4 -6 -2 -5 -13z"/>
<path d="M1160 1880 c0 -5 5 -10 11 -10 5 0 7 5 4 10 -3 6 -8 10 -11 10 -2 0
-4 -4 -4 -10z"/>
<path d="M1165 1850 c-3 -6 1 -7 9 -4 18 7 21 14 7 14 -6 0 -13 -4 -16 -10z"/>
<path d="M1227 1846 c-4 -10 -1 -13 9 -9 7 3 14 9 14 14 0 14 -17 10 -23 -5z"/>
<path d="M1246 1825 c-8 -9 -13 -22 -9 -31 6 -16 -33 -64 -53 -64 -6 0 -22 -9
-35 -21 l-24 -20 27 16 c33 20 52 11 45 -21 -2 -13 0 -21 4 -18 5 3 9 14 9 25
0 11 4 18 9 15 13 -8 91 103 84 120 -7 19 -38 18 -57 -1z m41 -26 c-15 -24
-29 -25 -20 -2 5 13 2 15 -11 10 -9 -4 -15 -3 -12 2 3 5 17 9 30 9 22 0 23 -3
13 -19z"/>
<path d="M1102 1781 c-11 -7 -11 -9 0 -14 9 -3 15 1 15 9 0 8 -1 14 -1 14 -1
0 -7 -4 -14 -9z"/>
<path d="M1161 1764 c-16 -19 -9 -28 18 -19 12 4 18 12 14 21 -7 18 -14 17
-32 -2z"/>
<path d="M845 1710 c-22 -11 -29 -17 -15 -14 38 10 70 23 70 29 0 9 -14 5 -55
-15z"/>
<path d="M1570 1726 c0 -2 7 -7 16 -10 8 -3 12 -2 9 4 -6 10 -25 14 -25 6z"/>
<path d="M858 1691 c-26 -9 -50 -20 -55 -25 -5 -5 0 -6 12 -2 11 5 34 12 52
17 18 6 35 14 38 19 4 6 5 9 3 9 -2 -1 -24 -9 -50 -18z"/>
<path d="M1501 1696 c14 -12 89 -55 89 -51 0 6 -77 55 -86 55 -4 0 -5 -2 -3
-4z"/>
<path d="M1590 1690 c0 -5 5 -10 11 -10 5 0 7 5 4 10 -3 6 -8 10 -11 10 -2 0
-4 -4 -4 -10z"/>
<path d="M1727 1679 c-9 -5 -22 -7 -29 -3 -7 4 -8 3 -4 -4 4 -7 16 -12 27 -12
10 0 19 -4 19 -10 0 -5 -7 -7 -15 -4 -8 4 -15 1 -15 -6 0 -6 -3 -9 -7 -7 -16
10 -53 -12 -47 -28 3 -8 10 -15 16 -15 5 0 28 -9 50 -20 50 -24 49 -24 41 -3
-4 10 -2 14 4 10 13 -8 25 17 17 37 -3 8 -11 17 -17 19 -7 2 -1 2 12 0 23 -4
23 -4 -5 26 -16 17 -29 31 -29 31 0 0 -8 -5 -18 -11z"/>
<path d="M1447 1674 c-9 -9 4 -35 14 -28 5 3 12 -2 15 -10 3 -9 10 -16 15 -16
4 0 0 13 -9 30 -17 30 -24 35 -35 24z"/>
<path d="M1503 1656 c27 -25 65 -37 52 -16 -4 6 -10 8 -15 5 -4 -2 -21 5 -36
16 l-29 21 28 -26z"/>
<path d="M1166 1655 c4 -8 8 -15 10 -15 2 0 4 7 4 15 0 8 -4 15 -10 15 -5 0
-7 -7 -4 -15z"/>
<path d="M1675 1650 c-3 -5 -1 -10 4 -10 6 0 11 5 11 10 0 6 -2 10 -4 10 -3 0
-8 -4 -11 -10z"/>
<path d="M1155 1619 c-4 -6 -5 -12 -2 -15 2 -3 7 2 10 11 7 17 1 20 -8 4z"/>
<path d="M660 1610 c-8 -5 -10 -10 -5 -10 6 0 17 5 25 10 8 5 11 10 5 10 -5 0
-17 -5 -25 -10z"/>
<path d="M1647 1580 c7 -8 23 -15 35 -17 12 -2 19 -1 16 3 -3 3 -12 6 -20 8
-7 1 -20 5 -28 10 -12 7 -13 6 -3 -4z"/>
<path d="M1800 1567 c0 -9 5 -17 10 -17 6 0 10 -8 11 -17 0 -11 3 -13 6 -6 2
7 -3 23 -11 35 -13 18 -16 19 -16 5z"/>
<path d="M1870 1521 c0 -6 4 -13 10 -16 6 -3 7 1 4 9 -7 18 -14 21 -14 7z"/>
<path d="M1770 1515 c0 -5 5 -17 10 -25 5 -8 10 -10 10 -5 0 6 -5 17 -10 25
-5 8 -10 11 -10 5z"/>
<path d="M1587 1492 c1 -8 3 -16 3 -18 0 -2 7 -4 16 -4 8 0 12 -4 9 -10 -3 -5
-1 -10 4 -10 6 0 11 7 11 15 0 8 -7 15 -16 15 -9 0 -12 5 -8 12 4 6 3 8 -4 4
-5 -3 -12 -3 -15 1 -2 5 -2 2 0 -5z"/>
<path d="M1810 1385 c0 -2 6 -8 13 -14 10 -8 14 -7 14 2 0 8 -6 14 -14 14 -7
0 -13 -1 -13 -2z"/>
<path d="M1940 1350 c0 -5 5 -10 11 -10 5 0 7 5 4 10 -3 6 -8 10 -11 10 -2 0
-4 -4 -4 -10z"/>
<path d="M1956 1305 c-9 -26 -7 -32 5 -12 6 10 9 21 6 23 -2 3 -7 -2 -11 -11z"/>
<path d="M1961 1252 c-8 -18 -9 -37 -3 -52 8 -21 10 -18 15 25 8 57 4 66 -12
27z"/>
<path d="M1891 1028 c-1 -15 16 -63 27 -78 7 -10 22 27 21 55 l0 30 -13 -30
-13 -30 -11 35 c-6 19 -11 27 -11 18z"/>
<path d="M1821 1014 c0 -11 3 -14 6 -6 3 7 2 16 -1 19 -3 4 -6 -2 -5 -13z"/>
<path d="M1872 1000 c0 -19 2 -27 5 -17 2 9 2 25 0 35 -3 9 -5 1 -5 -18z"/>
<path d="M2210 835 c0 -8 4 -15 10 -15 5 0 7 7 4 15 -4 8 -8 15 -10 15 -2 0
-4 -7 -4 -15z"/>
<path d="M2179 823 c-13 -16 -12 -17 4 -4 9 7 17 15 17 17 0 8 -8 3 -21 -13z"/>
<path d="M2280 801 c0 -5 5 -13 10 -16 6 -3 10 -2 10 4 0 5 -4 13 -10 16 -5 3
-10 2 -10 -4z"/>
<path d="M2225 790 c4 -6 11 -8 16 -5 14 9 11 15 -7 15 -8 0 -12 -5 -9 -10z"/>
<path d="M2430 769 c0 -5 5 -7 10 -4 6 3 10 8 10 11 0 2 -4 4 -10 4 -5 0 -10
-5 -10 -11z"/>
<path d="M2370 750 c0 -11 7 -20 15 -20 8 0 15 -7 15 -15 0 -8 5 -15 10 -15 6
0 10 11 10 24 0 20 -4 23 -22 20 -13 -2 -17 -2 -10 2 6 3 10 10 6 15 -10 16
-24 10 -24 -11z"/>
<path d="M2482 742 c1 -19 5 -29 10 -24 5 5 5 19 -1 33 -8 22 -9 22 -9 -9z"/>
<path d="M2450 741 c0 -6 5 -13 10 -16 6 -3 10 1 10 9 0 9 -4 16 -10 16 -5 0
-10 -4 -10 -9z"/>
<path d="M2380 684 c0 -8 -6 -17 -13 -20 -7 -2 -13 -17 -14 -32 l-2 -27 11 29
c6 16 13 24 17 18 10 -16 53 -2 49 16 -4 21 -48 36 -48 16z"/>
<path d="M2440 650 c0 -5 4 -10 9 -10 6 0 13 5 16 10 3 6 -1 10 -9 10 -9 0
-16 -4 -16 -10z"/>
<path d="M2270 634 c0 -8 5 -12 10 -9 6 4 8 11 5 16 -9 14 -15 11 -15 -7z"/>
</g>
</svg>
